<?xml version="1.0" standalone="no"?>
<svg t="1551324370373" class="icon" style="" viewBox="0 0 1024 1024" version="1.1" xmlns="http://www.w3.org/2000/svg"
     p-id="5040" xmlns:xlink="http://www.w3.org/1999/xlink" width="200" height="200">
  <defs>
    <style type="text/css"></style>
  </defs>
  <path d="M512 512m-508 0a508 508 0 1 0 1016 0 508 508 0 1 0-1016 0Z" p-id="5041"></path>
  <path d="M166.4 638.8a345.6 160 0 1 0 691.2 0 345.6 160 0 1 0-691.2 0Z" fill="#FFCA0D" p-id="5042"></path>
  <path d="M177.2 638.8a334.8 154.8 0 1 0 669.6 0 334.8 154.8 0 1 0-669.6 0Z" fill="#EDF0F2" p-id="5043"></path>
  <path d="M233.2 618a278.8 129.2 0 1 0 557.6 0 278.8 129.2 0 1 0-557.6 0Z" fill="#BBC2C6" p-id="5044"></path>
  <path d="M238.4 601.6a273.6 137.2 0 1 0 547.2 0 273.6 137.2 0 1 0-547.2 0Z" fill="#C87029" p-id="5045"></path>
  <path
    d="M738 536.8c-12.4-60.4-42-124.4-54.4-184.8-0.4-2.8-2.4-7.6-4-10.8 0-25.2-74.8-46-167.2-46-92.4 0-167.2 20.4-167.2 46v1.6c-2.4 4.8-4 9.6-6 14.4-19.6 55.2-26 110-45.2 165.6-6.8 10-10.8 21.2-10.8 32.4 0 59.2 102.4 106.8 229.2 106.8 126.4 0 229.2-48 229.2-106.8-0.4-6.4-1.6-12.4-3.6-18.4z"
    fill="#E69948" p-id="5046"></path>
  <path
    d="M285.6 570.8c16.8 51.2 111.6 90.8 226.4 90.8 126.4 0 229.2-48 229.2-106.8 0-2.8-0.4-6-0.8-8.8-3.6 12.4-10 24-19.2 33.6-4 4.4-9.2 8.4-15.2 7.2-6.8-1.6-10-9.2-11.6-16-19.6-70.8-38.4-141.6-56.4-212.8-3.2 1.2-6.4 2-9.6 3.2 19.6 77.2 39.2 154 58.8 231.2 2 7.2 3.2 16-2 20.8-2 2-4.4 2.8-6.8 3.6-11.6 4.8-23.6 9.2-35.2 14-9.6 3.6-20.4 7.6-30 3.2-12.4-5.6-15.2-21.6-16.8-34.8-7.6-74.4-14.8-148.4-22.4-222.8-4 0.4-8 0.4-12 0.8 5.2 77.6 13.6 154.4 25.2 231.2 2.4 15.2 3.2 34-10 41.6-6.4 3.6-14 3.6-21.6 3.6l-36-1.2c-5.6 0-11.6-0.4-16.4-3.2-4.4-2.8-7.2-7.2-9.2-12.4-4-10.4-4.4-21.6-4.4-32.8-0.8-74-2-148-2.8-222h-13.2c1.2 85.2-0.8 170.4-5.6 255.6 0 2.8-0.4 6.4-2.8 8-1.6 1.2-3.6 1.2-5.6 1.2-18.8 0.4-38-2-56.4-7.2-5.6-1.6-11.6-3.6-16-8-9.2-8.8-8.8-23.2-7.2-36 7.6-74.8 17.6-149.2 29.2-223.2-4.8-1.2-9.6-2.4-14-4-7.6 73.2-22.8 145.6-44.4 216-2 6.4-4.4 13.6-10.4 17.2-3.6 2.4-8 2.8-12.4 2.4-18-0.8-34.8-14-39.2-31.6-1.6-0.4-2.4-1.2-3.2-1.6z"
    fill="#CB7A33" p-id="5047"></path>
  <path d="M344.8 341.2a167.2 46 0 1 0 334.4 0 167.2 46 0 1 0-334.4 0Z" fill="#EFAE5F" p-id="5048"></path>
  <path d="M371.6 341.2a140.4 38.4 0 1 0 280.8 0 140.4 38.4 0 1 0-280.8 0Z" fill="#E69948" p-id="5049"></path>
  <path
    d="M334 586c-4.8 4-12.4 4-18.4 1.6-6-2.4-10.8-6.8-15.6-11.6 10 3.6 22-0.4 28.4-8.8 2.4-3.6 4-7.6 5.6-11.6l8.4-21.6c11.2-28.4 22-57.2 29.6-86.8 3.2-13.6 6-27.6 12.4-40-5.2 25.2-10.4 50.8-15.6 76-1.2 6-2.4 12-4 18-6 25.6-14 50.4-24.4 74.4-1.2 4-3.2 8-6.4 10.4zM405.2 628.8c-0.4-3.2 3.6-4.4 6.4-5.6 14.8-4.4 22.8-20 28.4-34.4 3.6-8.8 6.8-17.6 8.4-26.8 1.2-6.8 1.6-14 2.4-20.8 2.8-39.2 8.4-78.4 16-116.8 1.2 13.2 0.8 26.8 0 40-1.2 21.2-2.4 42.4-4.4 63.6-2.4 26-5.6 52-8.8 78-1.2 10-3.6 22-12.8 26.8-3.2 1.6-6.4 2.4-10 2.8-7.2 0.4-14.4-0.4-21.2-2.8-2-0.8-4-2-4.4-4zM548.8 610.4c1.2-4.8 1.6-10 2-15.2 1.2-19.2 1.6-38.4 1.2-57.6 0-10.8-0.4-21.6 0.4-32 0.8-10.4 2.8-20.4 3.6-30.4 0.8-18-3.2-37.6 6.4-52.8-0.4 27.2-0.8 54.4 0.8 81.6 1.6 33.6 6.4 66.8 10 100 0.8 7.6 1.6 15.6-2 22.4-3.6 7.2-11.2 11.6-18.8 13.2-7.6 1.6-16 1.2-23.6 0.4 9.6-6.8 17.2-17.6 20-29.6zM640.8 621.6c6.4-5.2 13.2-10.8 16.4-18.4 2.4-5.2 2.8-11.2 2.8-16.8 0-10.4-0.4-20.8-2.4-30.8-2-8.8-4.8-17.2-6.4-26-1.2-6.8-1.6-13.6-2.4-20.4-2.4-31.6-6.8-62.8-12.4-93.6 9.6 31.2 16.4 63.2 22.8 95.2 3.2 16 6.8 32 10 48 1.6 8.4 3.6 16.8 5.2 24.8s3.2 16.8-1.6 23.6c-2.8 4.4-7.6 6.8-12.4 9.2-6 3.6-12.8 6.8-19.6 5.2zM709.6 569.6c3.2-13.6 4.8-27.6 4.4-41.6-0.4-24.4-6.4-48-12.4-71.6-4.8-20-10-40-14.8-59.6 15.6 38 18.4 80.4 32.8 119.2 3.6 10 8 20 8 30.8-0.8 10-7.6 21.2-18 22.8z"
    fill="#F0B566" p-id="5050"></path>
  <path
    d="M666.8 331.6c6 4 6 13.6 2 19.2-4.4 6-11.2 8.8-18 11.6-45.2 17.6-94 26-142.8 24.4 43.2-0.4 86.8-9.2 126.8-25.6 10.4-4 21.2-9.6 26-20 1.2-3.2 2.4-8 6-9.6z"
    fill="#F4C97B" p-id="5051"></path>
  <path
    d="M466.4 318c35.2-17.6 75.2-26.8 113.6-19.6 1.6 0.4 3.6 0.8 5.2 1.6 2 1.2 3.2 2.8 4.8 4.4 4.4 4.8 10 9.6 9.6 16 0 5.6-4.4 10-9.2 12.8-9.6 6.4-21.6 8.8-32.8 11.2-4.4 0.8-9.6 2.4-10.8 6.8-0.8 2.8 0.4 5.6-0.4 8.4-0.4 2-1.6 3.6-3.2 5.2-4.4 4-10.8 4.8-16.4 5.2-9.2 0.8-18.8 1.6-28 2-5.6 0.4-11.2 0.8-17.2 0-7.6-0.8-15.2-3.2-22.4-5.6-6-2-12-4.4-17.2-8-5.2-4-9.2-9.6-9.2-16 0-2 0-3.6 1.2-5.2 1.2-2 3.2-3.2 5.2-4.4 8.8-4.8 18-10 27.2-14.8z"
    fill="#C4762F" p-id="5052"></path>
  <path
    d="M590.4 318.4c-23.6 21.2-75.2 22.4-87.6 8.4-12.8-14-5.6-65.2 17.6-86.4 23.6-21.2 54.4-4 66.8 10.4 12.8 14 26.4 46.4 3.2 67.6z"
    fill="#D82329" p-id="5053"></path>
  <path
    d="M542 295.2c-1.2 1.2-8.4 3.6-8.4 3.6s3.2-6.8 4.4-8c1.2-1.2 3.2-1.2 4.4 0.4 1.2 1.2 0.8 3.2-0.4 4zM517.2 318c-1.2 1.2-8.4 3.6-8.4 3.6s3.2-6.8 4.4-8c1.2-1.2 3.2-1.2 4.4 0.4 0.8 0.8 0.8 2.8-0.4 4zM526.4 260.8c-1.6 0.8-9.2 2.4-9.2 2.4s4-6.4 5.6-7.6 3.6-0.4 4.4 0.8c0.8 1.2 0.4 3.2-0.8 4.4zM570.8 310.4c-1.2 1.2-3.2 8.8-3.2 8.8s6.8-3.2 8-4.8c1.2-1.2 0.8-3.2-0.4-4.4-1.2-1.2-3.2-1.2-4.4 0.4zM544.4 244.4c-1.6 0-8.8-2.4-8.8-2.4s6.8-3.6 8.4-3.6c1.6 0 3.2 1.2 3.2 2.8 0 2-1.2 3.2-2.8 3.2zM588.8 294c-0.4 1.6 1.6 8.8 1.6 8.8s4.4-6.4 4.4-8c0.4-1.6-0.8-3.2-2.4-3.6-2 0-3.6 1.2-3.6 2.8zM518.8 288.4c-1.2 1.2-7.6 5.2-7.6 5.2s1.6-7.2 2.4-8.8c1.2-1.2 2.8-1.6 4.4-0.8 1.6 1.2 2 3.2 0.8 4.4zM542.4 314.4c-1.6 0.8-6 6.8-6 6.8s7.6-0.8 8.8-1.6c1.6-0.8 2-2.8 1.2-4.4-0.8-0.8-2.8-1.6-4-0.8zM547.6 262.8c-1.2 1.2-7.6 5.2-7.6 5.2s1.6-7.2 2.4-8.8c1.2-1.2 2.8-1.6 4.4-0.8 1.2 1.2 1.6 3.2 0.8 4.4zM570.8 288.8c-1.6 0.8-6 6.8-6 6.8s7.6-0.8 8.8-1.6c1.6-0.8 2-2.8 1.2-4.4-0.8-1.2-2.4-1.6-4-0.8z"
    fill="#EFE6A7" p-id="5054"></path>
  <path
    d="M595.6 267.6c3.2 3.2 6.8 6.4 7.6 10.8 1.2 5.2-1.2 11.2 0.4 16.4-0.8-3.2-2.4-6.4-4.4-9.2-1.2-1.6-2.8-3.2-3.6-4.8-1.2-2-1.6-4.4-2-6.4-0.8-2-1.6-4.4-3.6-5.6 2 1.6 2.4 4.4 2 6.8s-1.6 4.8-1.6 7.6c0 3.2 2 6 4.4 8 0.4 0.4 1.2 1.2 2 1.2-2.8-0.8-5.6-1.6-7.2-4-3.2-4-2-9.6-4-14-0.8-1.6-2.4-3.2-3.6-4.8-1.2-1.6-2-3.6-1.2-5.6-0.8 2.4-3.2 4-5.6 4.8-2.4 0.8-4.8 1.2-7.2 2-2.8 1.2-4.8 3.2-7.2 5.2 0.4-4.4 3.2-8.4 7.2-10 1.2-0.4 2-0.8 3.2-1.2 3.2-1.6 4.8-5.6 5.6-8.8-2.8 2.4-6.8 2-10 0s-5.2-4.8-8-7.2c-2.8-2.4-6.4-4.4-10-3.2 1.6-2 4.4-2.4 6.8-2 2.4 0.4 4.4 2 6.8 3.2 2 1.2 4.4 2.4 6.8 2.8 2.4 0 4.4-0.8 6.8-1.6-3.2-2-6.4-4.4-8.4-7.6-2-3.2-2.4-7.6-0.8-10.8 1.2-2.8 4.4-4.8 7.2-3.2-2.4 0.4-4.4 2.8-4.4 5.2 0 2.4 1.2 4.8 2.8 6.8 1.2 1.2 2.8 2.4 4.8 2.4 0.8 0 2-0.4 2.8 0 2.4 0 4.4 2.8 5.6 4.8 0-2 2-3.6 4-4 2-0.8 4-1.2 5.6-2.4-0.8 2.8 0.4 6 0.4 9.2 0 3.2-1.2 6.4-4 7.2 2.4-0.4 4.8 0.4 6.8 1.6 2 1.6 3.6 3.2 5.2 5.2 3.6 4.8 7.2 9.2 11.2 14-2.4-1.2-4.8-2.4-7.2-2.4h-4.8c-3.2-2-5.2-4.4-7.2-6.4z"
    fill="#64BD62" p-id="5055"></path>
  <path
    d="M424.4 346c26.8 24 86.4 26 100.8 9.6 14.8-16.4 6.4-75.2-20.4-99.2-26.8-24-62.4-4.4-77.2 11.6-14.4 16.4-30 54-3.2 78z"
    fill="#EB2427" p-id="5056"></path>
  <path
    d="M480 319.6c1.6 1.2 9.6 4 9.6 4s-3.6-8-4.8-9.2c-1.6-1.2-3.6-1.2-5.2 0.4-1.2 1.2-1.2 3.6 0.4 4.8zM508.8 345.6c1.6 1.2 9.6 4 9.6 4s-3.6-8-4.8-9.2c-1.6-1.2-3.6-1.2-5.2 0.4-1.2 1.2-1.2 3.6 0.4 4.8zM498.4 279.6c1.6 1.2 10.4 2.4 10.4 2.4s-4.8-7.6-6.4-8.8c-1.6-1.2-4-0.8-5.2 1.2-1.2 2-0.8 4.4 1.2 5.2zM447.2 336.8c1.2 1.6 3.6 10 3.6 10s-8-4-9.2-5.6c-1.2-1.6-1.2-4 0.4-5.2 1.6-0.8 3.6-0.8 5.2 0.8zM477.2 261.2c2 0 10-2.8 10-2.8s-7.6-4-9.6-4-3.6 1.2-3.6 3.2 1.6 3.6 3.2 3.6zM426.4 318c0.4 2-1.6 10.4-1.6 10.4s-4.8-7.2-5.2-9.2c-0.4-2 0.8-3.6 2.8-4 2-0.4 3.6 0.8 4 2.8zM506.8 312c1.2 1.6 8.8 6 8.8 6s-2-8.4-2.8-10c-1.2-1.6-3.2-2-4.8-0.8-2 0.8-2.4 3.2-1.2 4.8zM480 341.6c1.6 0.8 6.8 8 6.8 8s-8.4-0.8-10.4-2c-1.6-0.8-2.4-3.2-1.2-4.8 0.8-1.6 2.8-2 4.8-1.2zM474 282.4c1.2 1.6 8.8 6 8.8 6s-2-8.4-2.8-10c-1.2-1.6-3.2-2-4.8-0.8-2.4 0.8-2.4 3.2-1.2 4.8zM446.8 312.4c1.6 0.8 6.8 8 6.8 8s-8.4-0.8-10.4-2c-1.6-0.8-2.4-3.2-1.2-4.8 1.2-1.6 3.2-2.4 4.8-1.2z"
    fill="#EFE6A7" p-id="5057"></path>
  <path
    d="M418.4 287.6c-3.6 3.6-7.6 7.2-8.8 12.4-1.6 6 1.6 12.8-0.8 18.8 0.8-3.6 2.8-7.2 4.8-10.4 1.6-2 3.2-3.6 4-5.6 1.2-2.4 1.6-4.8 2.4-7.6 0.8-2.4 2-5.2 4.4-6.4-2.4 1.6-2.8 5.2-2.4 8 0.4 2.8 1.6 5.6 1.6 8.8 0 3.6-2.4 6.8-4.8 9.6-0.8 0.8-1.6 1.2-2.4 1.2 3.2-0.8 6.4-2 8-4.4 3.6-4.4 2-11.2 4.8-16.4 1.2-2 2.8-3.6 4-5.6 1.2-2 2-4.4 1.6-6.4 1.2 2.8 4 4.4 6.4 5.2 2.8 0.8 5.6 1.2 8.4 2.4 3.2 1.2 5.6 3.6 8 6-0.4-4.8-4-9.6-8.4-11.2l-3.6-1.2c-3.6-2-5.2-6.4-6.4-10.4 3.2 2.8 8 2 11.6 0 3.6-2 6-5.6 9.2-8.4 3.2-2.8 7.2-4.8 11.2-4-1.6-2.4-5.2-2.8-8-2-2.8 0.8-5.2 2.4-7.6 3.6-2.4 1.6-5.2 2.8-8 3.2-2.8 0-5.2-0.8-7.6-2 3.6-2 7.2-5.2 9.6-8.8 2-3.6 2.8-8.8 0.8-12.4-1.6-3.2-5.2-5.2-8.4-3.6 2.8 0.4 4.8 3.2 5.2 6 0.4 2.8-1.2 5.6-3.2 7.6-1.6 1.6-3.2 2.8-5.2 2.8-1.2 0-2.4-0.4-3.2-0.4-2.8 0.4-4.8 3.2-6.4 5.6 0-2.4-2.4-4-4.4-4.8-2.4-0.8-4.8-1.2-6.4-2.8 0.8 3.2-0.4 6.8-0.4 10.4 0 3.6 1.2 7.6 4.8 8.4-2.8-0.4-5.6 0.4-8 2-2.4 1.6-4 4-5.6 6-4.4 5.2-8.4 10.8-12.8 16 2.8-1.2 5.2-2.8 8.4-2.8h5.2c4-1.2 6.4-4 8.4-6.4z"
    fill="#64BD62" p-id="5058"></path>
</svg>
